<?xml version="1.0" standalone="no"?>
<!DOCTYPE svg PUBLIC "-//W3C//DTD SVG 20010904//EN"
 "http://www.w3.org/TR/2001/REC-SVG-20010904/DTD/svg10.dtd">
<svg version="1.0" xmlns="http://www.w3.org/2000/svg"
 width="1280.000000pt" height="1280.000000pt" viewBox="0 0 1280.000000 1280.000000"
 preserveAspectRatio="xMidYMid meet">
<metadata>
Created by potrace 1.15, written by Peter Selinger 2001-2017
</metadata>
<g transform="translate(0.000000,1280.000000) scale(0.100000,-0.100000)"
fill="#000000" stroke="none">
<path d="M3167 8660 c-103 -18 -195 -90 -217 -169 -5 -20 -10 -80 -10 -134 l0
-99 -466 -1071 c-257 -590 -476 -1091 -488 -1114 l-21 -42 -359 872 c-546
1322 -495 1191 -502 1293 -8 106 -26 146 -91 203 -47 42 -176 111 -206 111 -9
0 -52 10 -94 22 -66 19 -102 23 -233 23 -188 0 -239 -14 -307 -82 -85 -84
-102 -164 -57 -268 66 -153 59 -48 89 -1472 15 -716 25 -1313 21 -1326 -3 -14
-22 -45 -42 -68 -58 -70 -66 -97 -48 -161 37 -124 136 -229 286 -302 144 -71
212 -76 381 -31 102 27 201 101 228 173 16 41 12 137 -10 242 -10 52 -22 111
-25 130 -3 19 -17 332 -31 695 -13 363 -27 675 -29 694 -3 18 -3 32 -1 29 8
-7 115 -288 341 -892 l225 -598 -7 -122 c-6 -111 -4 -126 16 -181 71 -185 335
-296 570 -239 36 9 75 18 87 20 80 16 175 83 192 137 7 20 10 103 9 207 l-3
175 348 782 c191 430 347 788 347 795 1 9 3 8 10 -2 5 -9 25 -196 44 -415 20
-220 48 -523 61 -674 29 -310 30 -298 -42 -422 -49 -85 -62 -149 -43 -218 25
-94 208 -231 384 -287 116 -36 210 -41 324 -15 112 26 160 49 212 102 78 81
78 144 -4 300 -37 72 -58 127 -66 170 -6 35 -28 321 -50 634 -22 314 -63 889
-90 1278 -36 505 -48 718 -41 742 5 19 29 60 54 92 53 69 61 91 53 148 -10 60
-59 130 -130 182 -88 65 -141 89 -268 122 -126 33 -230 44 -301 31z"/>
<path d="M10557 7539 c-126 -30 -197 -121 -184 -236 2 -23 30 -95 60 -160 36
-76 172 -451 377 -1043 l322 -925 -53 -280 c-48 -262 -55 -286 -97 -373 -45
-92 -45 -92 -33 -146 24 -108 102 -191 209 -222 96 -28 228 -20 337 19 89 32
125 94 125 213 0 220 81 589 205 934 39 108 458 1158 559 1399 31 74 84 182
117 239 33 58 67 127 76 154 33 102 -1 214 -92 297 -70 63 -134 96 -238 120
-105 25 -174 27 -224 6 -78 -33 -102 -75 -134 -235 -19 -97 -53 -193 -226
-628 -111 -283 -206 -520 -210 -527 -5 -8 -56 137 -127 363 -149 469 -142 440
-161 632 -18 186 -38 249 -92 302 -51 48 -85 64 -192 88 -96 21 -253 26 -324
9z"/>
<path d="M4879 7530 c-204 -23 -319 -83 -423 -220 -218 -291 -341 -812 -307
-1303 30 -431 139 -723 346 -933 74 -75 105 -99 175 -133 47 -23 117 -48 155
-56 91 -19 232 -19 320 1 39 9 89 20 113 25 24 5 80 28 125 51 93 48 208 154
274 253 132 197 224 471 259 769 23 197 15 540 -16 716 -59 337 -183 561 -384
694 -57 38 -152 81 -197 90 -13 2 -62 13 -109 24 -104 25 -230 33 -331 22z
m240 -465 c82 -42 146 -163 178 -339 27 -141 24 -534 -5 -721 -63 -408 -188
-706 -286 -681 -66 17 -144 125 -184 256 -39 128 -47 229 -47 575 0 304 2 338
22 431 48 213 114 370 190 447 50 51 81 59 132 32z"/>
<path d="M9390 7530 c-267 -30 -472 -194 -625 -500 -115 -229 -173 -461 -195
-775 -38 -541 119 -1055 382 -1254 67 -50 166 -97 237 -112 100 -21 277 -6
431 34 240 64 354 120 455 221 160 162 226 321 181 431 -31 73 -145 170 -212
180 -16 2 -45 9 -64 14 -109 33 -202 -16 -231 -122 -6 -23 -16 -58 -22 -77
-15 -51 -129 -160 -211 -200 -36 -18 -88 -35 -114 -38 -47 -4 -49 -3 -93 46
-71 79 -120 235 -90 290 6 12 57 43 119 72 170 82 291 168 427 304 178 179
299 363 363 551 24 74 26 92 26 240 0 133 -4 174 -22 240 -59 213 -172 352
-332 408 -122 42 -286 61 -410 47z m190 -519 c137 -97 32 -437 -218 -702 -66
-71 -150 -136 -195 -152 -16 -6 -17 3 -13 121 4 138 20 226 67 372 59 180 129
293 224 362 33 24 46 28 75 23 19 -3 46 -14 60 -24z"/>
<path d="M6411 7519 c-61 -12 -109 -52 -139 -117 -24 -53 -24 -59 -16 -161 5
-58 9 -536 10 -1061 0 -1124 4 -1188 76 -1257 54 -51 147 -111 207 -133 69
-27 161 -27 254 -1 88 24 138 60 173 124 27 50 28 59 35 242 l8 190 45 130
c163 473 331 883 424 1034 l21 35 10 -26 c38 -100 52 -356 50 -903 l-2 -459
47 -42 c65 -60 127 -79 256 -79 205 0 386 70 446 171 35 60 32 111 -13 203
l-38 76 -6 565 c-4 311 -12 619 -18 685 -35 356 -88 533 -189 627 -43 40 -57
47 -146 68 -89 21 -106 22 -177 12 -195 -28 -368 -150 -508 -357 -60 -90 -117
-189 -225 -397 -48 -93 -88 -168 -89 -168 -1 0 1 114 4 252 5 242 6 256 32
327 46 128 31 213 -50 281 -44 36 -190 110 -219 110 -10 0 -39 6 -64 14 -64
19 -148 26 -199 15z"/>
</g>
</svg>
